<svg width="512" height="512" viewBox="0 0 512 512" fill="none" xmlns="http://www.w3.org/2000/svg">
<path fill-rule="evenodd" clip-rule="evenodd" d="M255.52 85C161.344 85 85 161.344 85 255.52C85 349.696 161.344 426.04 255.52 426.04C349.696 426.04 426.04 349.696 426.04 255.52C426.04 161.344 349.696 85 255.52 85ZM163.675 313.14C163.675 331.78 178.785 346.891 197.425 346.891H201.331C222.128 346.891 238.988 330.031 238.988 309.234V285.5C238.988 275.469 230.855 267.337 220.824 267.337C210.792 267.337 202.553 259.19 203.236 249.181C204.281 233.867 206.747 221.704 210.635 212.693C214.149 204.194 220.115 197.1 228.532 191.41C235.51 186.694 238.412 177.088 233.359 170.349C230.321 166.296 225.139 164.361 220.315 165.905C199.809 172.469 185.359 184.315 176.965 201.443C168.105 220.193 163.675 246.176 163.675 279.39V313.14ZM267.148 313.14C267.148 331.78 282.259 346.891 300.898 346.891H304.804C325.601 346.891 342.461 330.031 342.461 309.234V285.5C342.461 275.469 334.328 267.337 324.297 267.337C314.265 267.337 306.026 259.19 306.709 249.181C307.754 233.867 310.22 221.704 314.108 212.693C317.622 204.194 323.588 197.1 332.005 191.41C338.983 186.694 341.885 177.088 336.832 170.349C333.794 166.296 328.612 164.361 323.788 165.905C303.282 172.469 288.832 184.315 280.438 201.443C271.578 220.193 267.148 246.176 267.148 279.39V313.14Z" fill="white"/>
<path fill-rule="evenodd" clip-rule="evenodd" d="M255.52 85C161.344 85 85 161.344 85 255.52C85 349.696 161.344 426.04 255.52 426.04C349.696 426.04 426.04 349.696 426.04 255.52C426.04 161.344 349.696 85 255.52 85ZM163.675 313.14C163.675 331.78 178.785 346.891 197.425 346.891H201.331C222.128 346.891 238.988 330.031 238.988 309.234V285.5C238.988 275.469 230.855 267.337 220.824 267.337C210.792 267.337 202.553 259.19 203.236 249.181C204.281 233.867 206.747 221.704 210.635 212.693C214.149 204.194 220.115 197.1 228.532 191.41C235.51 186.694 238.412 177.088 233.359 170.349C230.321 166.296 225.139 164.361 220.315 165.905C199.809 172.469 185.359 184.315 176.965 201.443C168.105 220.193 163.675 246.176 163.675 279.39V313.14ZM267.148 313.14C267.148 331.78 282.259 346.891 300.898 346.891H304.804C325.601 346.891 342.461 330.031 342.461 309.234V285.5C342.461 275.469 334.328 267.337 324.297 267.337C314.265 267.337 306.026 259.19 306.709 249.181C307.754 233.867 310.22 221.704 314.108 212.693C317.622 204.194 323.588 197.1 332.005 191.41C338.983 186.694 341.885 177.088 336.832 170.349C333.794 166.296 328.612 164.361 323.788 165.905C303.282 172.469 288.832 184.315 280.438 201.443C271.578 220.193 267.148 246.176 267.148 279.39V313.14Z" fill="url(#paint0_linear_407_258)"/>
<defs>
<linearGradient id="paint0_linear_407_258" x1="-153.728" y1="-25.3365" x2="-23.3578" y2="776.925" gradientUnits="userSpaceOnUse">
<stop stop-color="#09A79F"/>
<stop offset="1" stop-color="#54ACDE" stop-opacity="0.5"/>
</linearGradient>
</defs>
</svg>
