<svg width="342" height="609" viewBox="0 0 342 609" fill="none" xmlns="http://www.w3.org/2000/svg">
<path d="M-191 399.488C-174.509 368.572 -158.018 337.656 -141.527 306.74C-125.036 275.824 -108.545 244.908 -92.0537 213.992C-43.3658 122.717 5.63574 57.138 54.9508 17.256C106.506 -23.322 167.165 -35.4058 236.928 -18.9954L244.59 56.0073C194.417 51.9371 153.359 64.075 121.414 92.4209C90.254 119.295 57.0052 165.855 21.6673 232.104L111.17 279.846L-5.44525 498.466L-98.2226 448.977L-191 399.488ZM63.9365 535.475C80.4276 504.559 96.9187 473.643 113.41 442.728C129.901 411.812 146.392 380.896 162.883 349.98C211.571 258.704 260.572 193.125 309.887 153.243C361.443 112.665 422.102 100.582 491.864 116.992L499.527 191.995C449.354 187.924 408.295 200.062 376.35 228.408C345.191 255.282 311.942 301.843 276.604 368.091L366.107 415.833L249.491 634.453L63.9365 535.475Z" fill="black" fill-opacity="0.02"/>
</svg>
