<?xml version="1.0" encoding="UTF-8"?><svg id="Layer_2" xmlns="http://www.w3.org/2000/svg" xmlns:xlink="http://www.w3.org/1999/xlink" viewBox="0 0 2100 2100"><defs><style>.cls-1{fill:#777;opacity:.1;}.cls-2{fill:url(#linear-gradient);}.cls-2,.cls-3,.cls-4,.cls-5{opacity:.5;}.cls-6{fill:url(#linear-gradient-8);}.cls-7{fill:url(#linear-gradient-4);}.cls-8{fill:url(#linear-gradient-2);}.cls-9{fill:url(#linear-gradient-6);}.cls-3{fill:url(#linear-gradient-3);}.cls-4{fill:url(#linear-gradient-5);}.cls-5{fill:url(#linear-gradient-7);}</style><linearGradient id="linear-gradient" x1="0" y1="641.02" x2="264.8" y2="641.02" gradientUnits="userSpaceOnUse"><stop offset="0" stop-color="#f478ff"/><stop offset=".85" stop-color="#ff1a42"/></linearGradient><linearGradient id="linear-gradient-2" x1="595.65" y1="663.08" x2="593.7" y2="-118.34" xlink:href="#linear-gradient"/><linearGradient id="linear-gradient-3" x1="1459.5" y1="343.08" x2="2100" y2="343.08" gradientUnits="userSpaceOnUse"><stop offset="0" stop-color="#45d3f2"/><stop offset=".86" stop-color="#3867d6"/></linearGradient><linearGradient id="linear-gradient-4" x1="1740.89" y1="402.4" x2="1740.89" y2="-24.28" xlink:href="#linear-gradient-3"/><linearGradient id="linear-gradient-5" x1="1036.63" y1="1900.49" x2="2100" y2="1900.49" gradientUnits="userSpaceOnUse"><stop offset="0" stop-color="#eafb2e"/><stop offset=".86" stop-color="#1cb664"/></linearGradient><linearGradient id="linear-gradient-6" x1="1510.43" y1="2111.72" x2="1510.43" y2="1449.01" xlink:href="#linear-gradient-5"/><linearGradient id="linear-gradient-7" x1="0" y1="1905.83" x2="826.76" y2="1905.83" gradientUnits="userSpaceOnUse"><stop offset="0" stop-color="#065d8e"/><stop offset=".86" stop-color="#333364"/></linearGradient><linearGradient id="linear-gradient-8" x1="380.34" y1="2146.4" x2="380.34" y2="1726.06" gradientUnits="userSpaceOnUse"><stop offset="0" stop-color="#065d8e"/><stop offset=".83" stop-color="#333364"/></linearGradient></defs><path class="cls-1" d="m0,0v2100h2100V0H0Zm1981.2,1263.55c-31.49,125.68-134.7,395.47-297.89,408.74-131.7,10.71-176.2-155.9-355.62-152.41-97.47,1.9-183.48,53-214.76,71.59-127.16,75.55-155.43,165.63-214.76,154.72-57.28-10.53-43.36-96.76-129.32-159.34-51.34-37.37-85.02-27.52-249.4-53.11-144.46-22.49-216.69-33.73-249.4-60.04-94.69-76.16-114.67-251.5-71.59-381.03,52.07-156.55,161.1-156.9,198.59-330.22,16.92-78.19,4.2-123.57,46.18-182.43,18.68-26.18,58.7-69.76,170.88-103.92,210.16-63.98,270.22,27.92,424.9-27.71,153.78-55.3,180.16-176.97,272.49-159.34,53.01,10.12,87.38,65.54,154.72,175.5,116.02,189.45,86.61,229.71,157.03,300.2,122.98,123.11,257.42,45.13,344.08,157.03,75.16,97.05,39.34,240.04,13.86,341.77Z"/><path class="cls-2" d="m0,264.69v752.67c78.04-36.04,146.69-90.57,194.93-161.72,94.6-139.53,96.02-342.3-13.42-470.52C133.17,328.48,69.84,290.51,0,264.69Z"/><path class="cls-8" d="m0,0v814.06c65.54-43.96,125.28-101.62,177.41-159.6,116.99-130.1,235.47-279.33,406.16-317.74,107.53-24.2,219.55.4,329.7-3.32,110.16-3.71,234.25-50.31,268.54-155.06,19.52-59.62,3.88-124.77-30.44-178.34H0Z"/><path class="cls-3" d="m1468.33,346.03c44.59,191.99,232.22,340.64,429.32,340.12,66.16-.17,136.83-14.12,202.35-12.11V0h-576.19c-55.25,115.26-78.51,246.89-55.48,346.03Z"/><path class="cls-7" d="m1758.59,424.52c91.99-5.78,184.7-46.15,273.46-21.34,25.44,7.11,48.05,18.91,67.95,34.29V0h-715.95c-21.92,211,115.96,440.79,374.54,424.52Z"/><path class="cls-4" d="m1900.78,2006.51c-129.55-11.85-233.76-105.98-337.01-185.1-103.26-79.13-235.21-150.13-358.2-107.74-183.28,63.17-186.22,226.8-152.1,386.33h1046.53v-133.05c-63.94,27.88-130.23,45.87-199.22,39.56Z"/><path class="cls-9" d="m1934.74,1675.1c-52.18,89.9-116.78,180.43-212.98,219.78-210.83,86.25-471.2-108.24-669.5,3.85-72.58,41.02-117.96,118.37-131.4,201.27h1179.14v-665.43c-71.48,65.8-116.22,156.05-165.26,240.53Z"/><path class="cls-5" d="m734.9,1946.86c-183.88-137.86-492.29,39.33-660.36-117.42C39.97,1797.2,17.95,1755.76,0,1711.66v388.34h826.76c-12.13-60.58-42.32-116-91.86-153.14Z"/><path class="cls-6" d="m726.25,1803.07c-71.76-132.33-252.36-192.51-389.16-129.71-102.38,47.01-176.06,150.15-285.52,176.81-17.13,4.17-34.35,6.26-51.57,6.6v243.23h729.02c38.82-97.57,46.46-206.17-2.77-296.93Z"/></svg>